<?xml version="1.0" standalone="no"?>
<!DOCTYPE svg PUBLIC "-//W3C//DTD SVG 20010904//EN"
 "http://www.w3.org/TR/2001/REC-SVG-20010904/DTD/svg10.dtd">
<svg version="1.0" xmlns="http://www.w3.org/2000/svg"
 width="835.000000pt" height="835.000000pt" viewBox="0 0 835.000000 835.000000"
 preserveAspectRatio="xMidYMid meet">
<metadata>
Created by potrace 1.14, written by Peter Selinger 2001-2017
</metadata>
<g transform="translate(0.000000,835.000000) scale(0.100000,-0.100000)"
fill="#000000" stroke="none">
<path d="M4600 6952 c0 -5 15 -16 33 -25 27 -13 29 -16 10 -16 -15 -1 -21 -6
-17 -16 3 -8 9 -14 12 -13 24 3 33 -4 30 -24 -4 -27 -21 -33 -41 -13 -17 17
-37 20 -37 5 0 -5 10 -19 23 -30 22 -21 40 -22 96 -4 21 6 22 5 13 -12 -11
-21 -12 -25 -12 -51 0 -13 -3 -14 -12 -5 -36 36 -97 -2 -84 -52 7 -30 71 -65
88 -48 9 9 5 14 -21 23 -34 12 -38 34 -10 52 37 23 114 -66 91 -104 -9 -13 -6
-19 15 -28 14 -7 26 -10 27 -9 1 2 24 49 51 106 43 89 51 101 69 96 12 -3 25
-10 29 -14 5 -4 -15 -58 -45 -119 l-54 -111 28 -9 c16 -6 28 -6 28 -1 0 5 23
56 51 115 37 75 55 103 62 96 13 -13 27 -14 27 -2 0 5 -37 27 -82 49 -46 22
-145 70 -220 106 -143 69 -148 71 -148 58z m144 -97 c-8 -21 -20 -19 -38 7
-24 33 -19 40 14 23 19 -10 27 -20 24 -30z m98 -29 c17 -12 15 -18 -20 -91
l-38 -78 -12 29 c-18 45 -18 78 2 122 19 41 32 45 68 18z"/>
<path d="M5137 6776 c-9 -22 26 -59 69 -75 22 -8 42 -19 46 -24 18 -28 -10
-22 -94 18 -84 41 -128 52 -85 20 17 -12 15 -19 -30 -111 -26 -55 -52 -102
-58 -106 -12 -8 -10 -10 38 -32 45 -20 72 -27 109 -27 38 0 45 5 73 61 27 53
27 54 -37 82 -32 15 -37 15 -42 2 -4 -9 3 -18 19 -24 30 -11 29 -10 8 -54 -19
-40 -61 -56 -92 -34 -18 13 -17 17 26 108 25 52 47 97 49 99 2 2 32 -9 66 -26
35 -17 73 -34 86 -37 25 -8 31 8 6 18 -11 4 -14 13 -10 31 7 28 -21 59 -62 70
-38 9 -66 36 -50 47 9 5 6 8 -8 8 -12 0 -24 -6 -27 -14z"/>
<path d="M3307 6749 c-23 -12 -35 -24 -31 -31 5 -8 2 -9 -10 -5 -19 7 -60 -28
-51 -44 4 -6 -8 -7 -33 -3 -43 7 -54 -1 -45 -34 4 -17 8 -20 19 -11 7 6 22 8
34 4 16 -5 18 -10 10 -25 -6 -12 -16 -17 -26 -13 -14 5 -15 3 -5 -15 7 -12 18
-22 26 -22 14 0 45 26 45 38 0 4 15 7 33 7 29 0 32 3 30 28 -1 15 0 27 2 27 8
0 74 -153 69 -161 -3 -5 11 -2 30 8 31 14 34 19 23 32 -7 9 -33 58 -57 109
-42 87 -44 95 -27 106 18 14 23 26 10 26 -5 -1 -25 -10 -46 -21z m-13 -78 c9
-13 -3 -39 -20 -45 -17 -6 -29 17 -20 39 6 17 32 20 40 6z"/>
<path d="M5314 6668 c-8 -26 -2 -30 30 -18 15 5 40 11 57 12 17 1 32 5 34 9 3
3 -8 5 -23 4 -15 -1 -41 2 -59 6 -27 6 -33 3 -39 -13z"/>
<path d="M4065 6651 c-33 -16 -98 -47 -145 -69 -47 -22 -138 -65 -202 -96
-285 -136 -357 -170 -423 -201 -86 -40 -222 -104 -380 -180 -300 -143 -518
-247 -620 -295 -92 -43 -248 -118 -455 -217 -80 -38 -174 -83 -210 -99 -36
-15 -66 -32 -68 -36 -2 -4 -9 -8 -15 -8 -7 0 -72 -29 -145 -65 -73 -36 -134
-65 -136 -65 -2 0 -81 -38 -177 -84 -96 -45 -205 -98 -244 -116 -38 -18 -131
-62 -205 -98 -74 -35 -166 -79 -205 -97 -294 -138 -363 -174 -382 -201 -29
-41 -36 -70 -29 -118 11 -71 77 -126 152 -126 35 0 90 24 494 218 122 58 232
111 415 197 50 23 151 72 225 108 74 35 185 88 245 117 61 28 152 72 204 97
51 24 141 67 200 95 178 85 301 143 421 201 63 30 156 74 205 97 50 23 146 69
215 102 69 33 163 78 210 101 47 22 163 78 259 123 95 46 175 84 176 84 2 0
79 37 172 81 92 45 209 100 258 124 50 23 131 62 180 85 50 24 95 43 100 43 6
0 64 -26 130 -58 183 -88 365 -175 413 -196 24 -11 131 -62 239 -114 107 -52
197 -95 198 -95 2 0 72 -33 157 -74 84 -40 187 -89 228 -109 41 -19 129 -61
195 -92 66 -32 165 -79 220 -105 55 -26 154 -73 220 -105 66 -32 161 -77 210
-100 50 -23 142 -67 205 -97 63 -31 160 -77 215 -103 55 -26 136 -64 180 -85
44 -21 156 -74 249 -119 92 -45 169 -81 171 -81 1 0 96 -45 210 -100 113 -55
208 -100 209 -100 2 0 69 -31 150 -70 157 -76 193 -83 256 -52 77 38 105 142
58 213 -27 41 -108 82 -637 331 -58 28 -153 73 -211 100 -58 28 -150 72 -205
98 -55 26 -152 72 -215 102 -63 31 -155 75 -205 98 -49 24 -142 67 -205 98
-63 30 -155 74 -205 97 -49 24 -144 68 -210 100 -66 31 -151 72 -190 90 -38
18 -146 69 -238 114 -93 44 -171 81 -173 81 -2 0 -41 18 -86 41 -46 22 -204
98 -353 169 -148 70 -317 150 -375 178 -527 251 -573 272 -606 272 -16 0 -56
-13 -89 -29z"/>
<path d="M2838 6522 c-146 -71 -195 -104 -132 -88 22 6 25 4 20 -12 -9 -26 67
-178 91 -184 22 -6 113 19 113 31 0 17 -12 18 -40 4 -17 -8 -34 -11 -40 -8 -6
4 -27 41 -47 83 -20 42 -38 80 -40 84 -5 10 43 58 57 58 6 0 27 -34 46 -75 34
-73 45 -83 72 -66 12 7 11 14 -2 38 -13 26 -13 33 -2 49 12 16 16 12 44 -48
17 -36 36 -69 42 -73 7 -4 23 4 39 20 14 15 21 25 16 22 -18 -10 -31 6 -64 77
-24 53 -29 71 -20 82 9 12 8 14 -7 11 -27 -4 -48 -18 -66 -46 l-16 -23 -16 29
c-14 29 -14 31 7 40 72 34 117 59 117 65 0 14 -12 9 -172 -70z"/>
<path d="M5470 6532 c0 -5 33 -24 73 -43 91 -43 93 -65 3 -39 l-63 18 -31 -64
c-18 -36 -32 -73 -32 -84 0 -22 42 -63 98 -95 l38 -21 53 111 c44 91 57 111
72 108 10 -3 24 -12 31 -21 7 -9 8 -13 2 -9 -6 3 -20 0 -30 -8 -16 -11 -19
-27 -19 -92 -1 -100 -13 -123 -49 -87 -9 8 -20 12 -26 9 -28 -17 44 -55 81
-43 35 12 46 41 43 119 -2 71 2 85 26 91 17 3 100 -31 100 -41 0 -4 -24 -55
-53 -113 l-52 -107 22 -12 c13 -7 24 -10 26 -8 3 5 60 124 85 181 14 31 21 36
40 31 46 -11 18 13 -56 49 -223 108 -371 178 -376 178 -3 0 -6 -4 -6 -8z m122
-119 c4 -2 4 -12 -1 -21 -5 -9 -21 -42 -36 -72 -36 -71 -41 -76 -60 -60 -34
28 -35 45 -5 109 29 62 30 62 62 56 18 -4 36 -9 40 -12z"/>
<path d="M2415 6317 c-82 -40 -165 -80 -182 -88 -32 -13 -44 -29 -23 -29 6 0
46 18 90 40 44 22 82 40 84 40 3 0 10 -9 16 -20 9 -17 7 -24 -12 -40 -13 -11
-30 -19 -39 -20 -22 0 -69 -38 -69 -55 0 -27 52 -124 69 -129 40 -13 114 15
104 40 -5 15 -7 15 -15 0 -5 -9 -20 -16 -34 -16 -21 0 -30 10 -54 62 -27 57
-30 78 -11 78 4 0 16 -18 26 -39 19 -43 31 -52 56 -42 15 5 14 11 -6 53 -15
32 -20 50 -13 55 14 8 33 -18 65 -89 14 -32 27 -58 29 -58 13 0 53 25 47 29
-9 7 -103 197 -103 208 0 5 13 16 30 25 l29 16 50 -105 c28 -58 51 -109 51
-114 0 -4 13 -4 28 2 l28 10 -55 111 c-49 100 -52 112 -38 123 18 13 22 25 10
25 -5 0 -75 -33 -158 -73z"/>
<path d="M5955 6294 c14 -12 16 -18 7 -21 -16 -6 -92 -156 -92 -181 0 -29 49
-67 130 -100 64 -26 91 -30 132 -23 10 1 58 96 58 113 0 7 -18 31 -41 54 -30
30 -39 46 -33 57 8 13 19 10 78 -19 76 -38 76 -38 76 -24 0 10 -304 160 -323
160 -7 0 -3 -8 8 -16z m115 -64 c0 -17 -94 -209 -99 -203 -3 5 -15 13 -26 19
-11 6 -21 20 -23 31 -4 25 63 159 85 172 17 9 63 -5 63 -19z m78 -127 c7 -3
-48 -113 -58 -114 -5 -1 -17 -1 -25 -1 -45 0 -46 11 -4 98 l32 65 26 -23 c14
-13 27 -24 29 -25z"/>
<path d="M6290 6137 c0 -7 38 -30 85 -51 83 -38 93 -48 76 -74 -9 -15 -56 -7
-81 13 -49 40 -82 28 -115 -40 -31 -67 -31 -75 3 -107 32 -31 77 -47 70 -27
-3 8 -10 14 -18 14 -7 0 -18 9 -25 20 -11 17 -9 28 11 73 23 49 47 72 60 59 3
-3 -4 -24 -16 -47 -21 -40 -21 -43 -4 -62 18 -19 19 -18 44 32 21 41 28 49 37
38 9 -10 3 -30 -26 -84 -35 -67 -36 -72 -19 -83 10 -6 21 -11 26 -11 5 0 32
50 61 110 29 61 56 110 60 110 4 0 12 -5 19 -12 9 -9 12 -9 12 3 0 9 -36 33
-92 60 -158 75 -168 79 -168 66z"/>
<path d="M1992 6084 c-48 -33 -17 -114 43 -114 31 0 65 36 65 69 0 53 -60 79
-108 45z m67 -39 c22 -63 -17 -79 -42 -17 -17 41 -14 52 12 52 10 0 22 -13 30
-35z"/>
<path d="M1770 6005 c-69 -35 -140 -69 -157 -75 -18 -6 -33 -16 -33 -21 0 -15
18 -10 80 21 33 17 64 30 70 30 21 0 8 -18 -37 -50 -27 -18 -50 -35 -52 -36
-6 -5 60 -138 72 -146 21 -13 65 -9 122 13 30 11 55 22 55 23 0 2 -24 52 -54
112 l-54 109 32 17 31 17 56 -113 c50 -101 58 -111 75 -102 10 6 21 12 22 13
2 1 -21 51 -51 112 l-55 110 22 15 c20 14 20 15 1 14 -11 0 -76 -29 -145 -63z
m24 -162 c37 -77 37 -90 -1 -97 -29 -6 -40 4 -73 70 l-31 59 28 22 c15 13 31
23 34 23 4 0 23 -35 43 -77z"/>
<path d="M6570 6002 c0 -5 32 -23 70 -42 90 -44 94 -66 8 -39 -35 10 -64 19
-65 19 -1 0 -18 -34 -38 -75 -34 -71 -35 -75 -20 -99 9 -13 28 -33 43 -43 29
-19 84 -45 87 -41 1 2 26 51 55 111 28 59 55 107 59 107 4 0 12 -5 18 -11 8
-8 13 -8 17 0 5 7 -37 32 -109 66 -126 59 -125 59 -125 47z m89 -108 c17 -4
31 -11 31 -17 0 -15 -71 -157 -79 -157 -11 0 -51 39 -51 50 0 15 54 130 61
130 4 0 21 -3 38 -6z"/>
<path d="M2032 5936 c2 -15 9 -20 23 -18 11 2 34 6 51 9 37 6 54 -12 28 -31
-12 -9 -15 -19 -10 -32 7 -18 9 -18 27 5 24 29 24 32 -2 65 -18 23 -28 27 -71
25 -43 -2 -49 -5 -46 -23z"/>
<path d="M1212 5815 c-28 -28 -30 -34 -17 -45 19 -15 23 -12 46 40 21 48 15
49 -29 5z"/>
<path d="M6966 5812 c-3 -5 25 -23 62 -41 58 -29 64 -34 47 -43 -11 -6 -26
-18 -32 -26 -17 -21 -16 -69 1 -75 18 -7 26 1 26 27 0 33 27 66 48 59 31 -12
30 -25 -7 -97 -37 -69 -39 -71 -79 -74 -38 -3 -43 0 -52 24 -6 15 -9 39 -6 53
6 36 35 102 54 124 14 16 13 17 -15 17 -27 0 -31 -4 -36 -32 -2 -18 -10 -59
-17 -91 -10 -43 -10 -64 -2 -82 25 -54 111 -77 152 -40 11 10 23 16 26 13 6
-6 -15 -49 -29 -59 -4 -3 9 -13 29 -22 19 -10 33 -13 29 -8 -3 5 18 57 46 115
l51 106 29 -16 c17 -8 29 -18 27 -22 -2 -4 -18 -38 -36 -76 -19 -38 -42 -86
-52 -106 l-18 -36 27 -11 c20 -7 28 -7 28 1 0 6 23 57 50 113 41 84 52 100 65
92 11 -6 19 -5 23 1 5 8 -164 95 -365 187 -30 14 -58 27 -62 29 -4 3 -9 1 -12
-4z m234 -122 c18 -10 17 -13 -11 -68 -17 -31 -35 -61 -40 -66 -14 -15 -11 5
6 34 8 14 14 44 15 68 0 45 2 47 30 32z"/>
<path d="M1091 5745 c-48 -28 -67 -31 -74 -12 -3 8 -7 6 -12 -6 -8 -19 10 -47
31 -47 8 0 36 12 63 28 35 19 53 24 60 17 8 -8 -16 -24 -79 -55 -50 -24 -90
-48 -90 -53 0 -4 8 -6 18 -2 16 4 27 -11 67 -92 26 -54 48 -104 48 -110 0 -18
10 -16 54 9 53 30 103 79 103 100 0 15 -33 93 -46 107 -8 9 -94 -41 -94 -54 0
-17 16 -20 25 -5 13 21 42 9 57 -22 18 -39 10 -68 -26 -91 l-26 -17 -49 102
-49 103 79 38 c44 20 79 42 79 48 0 6 -9 8 -19 4 -13 -4 -27 1 -40 14 -26 26
-27 26 -80 -4z"/>
<path d="M4095 5711 c-32 -14 -71 -57 -81 -93 -6 -20 -10 -304 -9 -720 0 -379
-2 -689 -5 -689 -3 -1 -375 -2 -827 -3 l-823 -1 0 30 c0 16 -1 141 -1 276 -1
241 -2 248 -25 287 -60 101 -205 95 -260 -11 -12 -22 -15 -86 -17 -304 l-2
-277 -165 -2 c-194 -3 -254 -15 -385 -79 -139 -69 -248 -173 -326 -309 -30
-52 -65 -136 -75 -181 -21 -88 -23 -161 -21 -615 4 -562 3 -552 75 -699 81
-167 220 -298 390 -371 142 -60 103 -59 1331 -59 619 -1 1127 -4 1130 -7 3 -3
6 -88 6 -189 1 -177 2 -185 26 -219 61 -90 200 -87 254 5 19 33 24 98 25 387
l0 22 1150 0 c1012 0 1160 2 1228 16 285 59 510 273 588 559 18 65 19 110 19
585 0 463 -2 522 -18 580 -63 230 -218 414 -431 510 -116 53 -173 62 -386 64
l-195 1 -5 287 c-6 321 -5 320 -83 361 -69 36 -144 18 -189 -45 -22 -32 -23
-40 -28 -318 l-5 -285 -822 0 -823 0 -1 70 c0 38 0 352 0 696 0 608 -1 628
-20 667 -12 23 -36 50 -55 61 -36 22 -102 27 -139 12z"/>
<path d="M6516 5711 c-3 -5 3 -20 14 -32 20 -24 20 -24 35 -4 14 18 13 20 -7
32 -28 15 -35 16 -42 4z"/>
<path d="M7426 5592 c-3 -5 28 -24 69 -43 102 -47 99 -75 -3 -38 -46 17 -57
11 -90 -56 -18 -36 -32 -71 -32 -78 0 -19 59 -72 108 -96 29 -15 42 -18 42 -9
0 7 22 59 50 115 l49 103 30 -18 c17 -9 31 -20 31 -23 0 -3 -24 -54 -53 -112
l-54 -106 26 -9 c27 -9 27 -10 109 170 14 31 20 36 39 32 13 -4 23 -2 23 3 0
5 -73 45 -162 88 -90 43 -166 80 -170 82 -4 2 -9 -1 -12 -5z m93 -113 c18 -6
31 -14 29 -18 -46 -100 -73 -151 -81 -151 -17 0 -47 32 -47 49 0 19 51 131 60
131 4 0 21 -5 39 -11z"/>
<path d="M655 5465 c-115 -56 -211 -108 -213 -114 -3 -8 8 -7 32 3 35 14 36
14 26 -4 -13 -24 10 -34 27 -11 11 15 13 15 29 -1 20 -20 11 -38 -22 -38 -15
0 -24 -6 -24 -16 0 -14 7 -15 37 -11 37 6 56 26 59 60 1 9 2 20 3 25 0 4 14
-6 29 -23 l28 -29 -29 -26 c-23 -21 -27 -30 -22 -53 4 -15 15 -28 24 -29 47
-5 58 -3 84 15 19 13 25 23 18 30 -6 6 -15 4 -27 -7 -23 -23 -48 -16 -52 15
-3 26 25 47 58 44 8 -1 25 -3 38 -3 12 -1 30 -11 39 -21 12 -15 21 -17 38 -9
21 9 21 11 -31 116 l-52 107 26 17 27 18 56 -113 c51 -103 58 -113 77 -106 12
5 22 11 22 13 0 3 -24 54 -53 113 -54 108 -54 109 -33 125 47 38 -17 13 -219
-87z m90 -82 c19 -40 30 -73 25 -73 -6 0 -27 8 -49 17 -29 12 -44 28 -60 61
-12 24 -21 45 -19 47 16 12 45 24 55 22 7 -1 28 -35 48 -74z m-141 11 c3 -9 6
-17 6 -18 0 -2 -16 -3 -35 -3 -40 0 -45 9 -12 25 30 15 34 14 41 -4z"/>
<path d="M7780 5415 c0 -3 26 -18 58 -34 56 -28 56 -29 29 -36 -26 -7 -34 -26
-12 -27 19 0 45 -19 45 -33 0 -7 -24 -34 -54 -59 -64 -56 -105 -61 -97 -13 1
10 -27 9 -33 -2 -3 -5 7 -23 23 -40 42 -45 71 -41 139 19 31 28 60 50 64 50
15 0 8 -31 -23 -92 -31 -61 -30 -71 7 -82 14 -4 21 -2 21 8 0 8 21 57 47 110
43 89 49 96 71 90 15 -4 25 -2 25 5 0 6 -4 11 -10 11 -5 0 -69 29 -142 65
-122 60 -158 73 -158 60z m178 -91 c35 -17 38 -25 21 -55 -13 -25 -34 -12 -43
26 -4 14 -11 25 -17 25 -6 0 -7 5 -4 10 8 13 6 13 43 -6z"/>
<path d="M8106 5261 c-3 -4 23 -20 57 -36 86 -40 88 -42 75 -70 l-11 -24 -25
19 c-14 12 -40 20 -62 20 -35 0 -38 -3 -65 -60 l-28 -59 24 -35 c25 -37 59
-54 59 -30 0 8 -6 14 -14 14 -25 0 -24 24 2 83 22 50 29 58 50 55 46 -6 48
-28 10 -107 l-35 -72 27 -14 c19 -10 27 -11 27 -2 0 10 89 205 98 215 2 2 13
-1 24 -8 14 -7 21 -7 21 0 0 17 -226 125 -234 111z"/>
</g>
</svg>
